<svg width="16" height="17" viewBox="0 0 16 17" fill="none" xmlns="http://www.w3.org/2000/svg">
<path d="M15.5456 14.2105C15.7495 14.4143 15.864 14.6908 15.864 14.9791C15.864 15.2674 15.7495 15.5438 15.5456 15.7477C15.3418 15.9515 15.0653 16.066 14.7771 16.066C14.4888 16.066 14.2123 15.9515 14.0085 15.7477L8.26769 10.0051L2.52509 15.7458C2.32125 15.9497 2.04478 16.0642 1.75651 16.0642C1.46824 16.0642 1.19178 15.9497 0.98794 15.7458C0.784102 15.542 0.669586 15.2655 0.669586 14.9773C0.669586 14.689 0.784102 14.4125 0.98794 14.2087L6.73054 8.4679L0.989748 2.7253C0.78591 2.52146 0.671395 2.245 0.671395 1.95673C0.671395 1.66846 0.78591 1.39199 0.989748 1.18815C1.19359 0.984316 1.47005 0.869801 1.75832 0.869801C2.04659 0.869801 2.32306 0.984316 2.5269 1.18815L8.26769 6.93076L14.0103 1.18725C14.2141 0.983412 14.4906 0.868896 14.7789 0.868896C15.0671 0.868896 15.3436 0.983412 15.5474 1.18725C15.7513 1.39109 15.8658 1.66755 15.8658 1.95582C15.8658 2.24409 15.7513 2.52056 15.5474 2.7244L9.80484 8.4679L15.5456 14.2105Z" fill="white"/>
</svg>
